<?xml version="1.0" encoding="utf-8"?>
<!-- Generator: Adobe Illustrator 25.0.1, SVG Export Plug-In . SVG Version: 6.00 Build 0)  -->
<svg version="1.1" id="Layer_1" xmlns="http://www.w3.org/2000/svg" xmlns:xlink="http://www.w3.org/1999/xlink" x="0px" y="0px"
	 viewBox="0 0 211.1 52.5" style="enable-background:new 0 0 211.1 52.5;" xml:space="preserve">
<style type="text/css">
	.st0{clip-path:url(#SVGID_4_);}
	.st1{clip-path:url(#SVGID_6_);fill-rule:evenodd;clip-rule:evenodd;fill:#FFFFFF;}
	.st2{clip-path:url(#SVGID_8_);fill-rule:evenodd;clip-rule:evenodd;fill:#FFE600;}
	.st3{clip-path:url(#SVGID_10_);fill-rule:evenodd;clip-rule:evenodd;fill:#FFE600;}
</style>
<g>
	<defs>
		<rect id="SVGID_1_" x="5" y="5" width="200.9" height="42.5"/>
	</defs>
	<clipPath id="SVGID_2_">
		<use xlink:href="#SVGID_1_"  style="overflow:visible;"/>
	</clipPath>
</g>
<g>
	<defs>
		<rect id="SVGID_3_" x="5" y="5" width="200.9" height="42.5"/>
	</defs>
	<clipPath id="SVGID_4_">
		<use xlink:href="#SVGID_3_"  style="overflow:visible;"/>
	</clipPath>
	<g class="st0">
		<g>
			<defs>
				<rect id="SVGID_5_" x="5" y="5" width="200.9" height="42.5"/>
			</defs>
			<clipPath id="SVGID_6_">
				<use xlink:href="#SVGID_5_"  style="overflow:visible;"/>
			</clipPath>
			<path class="st1" d="M85.4,22.6c0,0.7-0.1,1.4-0.4,2s-0.6,1.1-1,1.5c-0.4,0.4-1,0.7-1.7,1c-0.7,0.2-1.4,0.3-2.3,0.3h-1.7v5.3
				c0,0.1,0,0.1-0.1,0.2c0,0-0.1,0.1-0.2,0.1c-0.1,0-0.2,0-0.3,0.1c-0.1,0-0.3,0-0.5,0c-0.2,0-0.3,0-0.5,0c-0.1,0-0.2,0-0.3-0.1
				s-0.1-0.1-0.2-0.1c0,0-0.1-0.1-0.1-0.2V19.1c0-0.3,0.1-0.5,0.2-0.6c0.2-0.1,0.3-0.2,0.5-0.2h3.1c0.3,0,0.6,0,0.9,0s0.6,0.1,1,0.2
				c0.4,0.1,0.8,0.2,1.2,0.5c0.4,0.2,0.8,0.5,1.1,0.9c0.3,0.4,0.5,0.8,0.7,1.2C85.3,21.5,85.4,22,85.4,22.6 M83.4,22.7
				c0-0.6-0.1-1.1-0.3-1.5c-0.2-0.4-0.5-0.7-0.8-0.9c-0.3-0.2-0.7-0.3-1-0.4c-0.3,0-0.7-0.1-1-0.1h-1.8v5.9h1.8
				c0.6,0,1.1-0.1,1.5-0.2c0.4-0.1,0.7-0.4,1-0.6c0.3-0.3,0.5-0.6,0.6-1C83.3,23.6,83.4,23.2,83.4,22.7 M96.3,27.4
				c0,0.8-0.1,1.6-0.3,2.3c-0.2,0.7-0.5,1.3-1,1.8c-0.4,0.5-1,0.9-1.6,1.2c-0.7,0.3-1.4,0.4-2.3,0.4c-0.8,0-1.6-0.1-2.2-0.4
				c-0.6-0.2-1.1-0.6-1.6-1.1c-0.4-0.5-0.7-1-0.9-1.7c-0.2-0.7-0.3-1.5-0.3-2.3c0-0.8,0.1-1.6,0.3-2.3c0.2-0.7,0.5-1.3,1-1.8
				s1-0.9,1.6-1.2c0.7-0.3,1.4-0.4,2.3-0.4c0.8,0,1.6,0.1,2.2,0.4s1.1,0.6,1.6,1.1s0.7,1,0.9,1.7C96.2,25.8,96.3,26.6,96.3,27.4
				 M94.4,27.6c0-0.5-0.1-1.1-0.2-1.6s-0.3-0.9-0.5-1.3c-0.2-0.4-0.6-0.7-0.9-0.9c-0.4-0.2-0.9-0.3-1.5-0.3c-0.6,0-1,0.1-1.4,0.3
				c-0.4,0.2-0.7,0.5-1,0.8s-0.4,0.8-0.6,1.3s-0.2,1-0.2,1.6c0,0.6,0.1,1.1,0.2,1.6s0.3,0.9,0.5,1.3c0.2,0.4,0.6,0.7,0.9,0.9
				c0.4,0.2,0.9,0.3,1.5,0.3c0.5,0,1-0.1,1.4-0.3c0.4-0.2,0.7-0.5,1-0.8c0.3-0.4,0.4-0.8,0.6-1.3S94.4,28.1,94.4,27.6 M105.9,31.1
				c0,0.1,0,0.2,0,0.3c0,0.1,0,0.2,0,0.2c0,0.1,0,0.1-0.1,0.2s-0.1,0.1-0.2,0.2c-0.1,0.1-0.2,0.2-0.5,0.3s-0.5,0.3-0.8,0.4
				s-0.6,0.2-0.9,0.3s-0.7,0.1-1,0.1c-0.7,0-1.4-0.1-1.9-0.4c-0.6-0.2-1-0.6-1.4-1.1c-0.4-0.5-0.7-1-0.9-1.7
				c-0.2-0.7-0.3-1.5-0.3-2.3c0-1,0.1-1.9,0.4-2.6c0.2-0.7,0.6-1.3,1-1.8c0.4-0.5,0.9-0.8,1.5-1c0.6-0.2,1.2-0.3,1.9-0.3
				c0.3,0,0.6,0,0.9,0.1c0.3,0.1,0.6,0.1,0.8,0.2s0.5,0.2,0.7,0.3c0.2,0.1,0.3,0.2,0.4,0.3c0.1,0.1,0.2,0.2,0.2,0.2
				c0,0,0.1,0.1,0.1,0.2c0,0.1,0,0.1,0.1,0.2s0,0.2,0,0.3c0,0.3,0,0.5-0.1,0.6c-0.1,0.1-0.2,0.2-0.2,0.2c-0.1,0-0.2-0.1-0.4-0.2
				c-0.2-0.1-0.3-0.3-0.6-0.4c-0.2-0.1-0.5-0.3-0.8-0.4c-0.3-0.1-0.7-0.2-1.1-0.2c-0.9,0-1.6,0.4-2.1,1c-0.5,0.7-0.7,1.7-0.7,3
				c0,0.7,0.1,1.2,0.2,1.7c0.1,0.5,0.3,0.9,0.6,1.2c0.2,0.3,0.5,0.6,0.9,0.7s0.8,0.2,1.2,0.2c0.4,0,0.8-0.1,1.1-0.2
				c0.3-0.1,0.6-0.3,0.8-0.5c0.2-0.2,0.4-0.3,0.6-0.4c0.2-0.1,0.3-0.2,0.4-0.2c0.1,0,0.1,0,0.1,0c0,0,0.1,0.1,0.1,0.1s0,0.2,0.1,0.3
				C105.9,30.8,105.9,30.9,105.9,31.1 M114.6,32.1c0,0.1,0,0.3,0,0.4s-0.1,0.2-0.1,0.2s-0.1,0.1-0.1,0.1c-0.1,0-0.1,0-0.2,0h-6.3
				c-0.2,0-0.3,0-0.4-0.2c-0.1-0.1-0.2-0.3-0.2-0.5v-0.4c0-0.1,0-0.2,0-0.3c0-0.1,0-0.2,0.1-0.2c0-0.1,0.1-0.2,0.1-0.3
				c0.1-0.1,0.1-0.2,0.2-0.3l4.5-7h-4.3c-0.1,0-0.2-0.1-0.3-0.2c-0.1-0.1-0.1-0.3-0.1-0.6c0-0.1,0-0.2,0-0.4c0-0.1,0-0.2,0.1-0.2
				s0.1-0.1,0.1-0.1c0.1,0,0.1,0,0.2,0h5.8c0.1,0,0.2,0,0.2,0c0.1,0,0.1,0.1,0.2,0.1c0,0,0.1,0.1,0.1,0.2c0,0.1,0,0.2,0,0.3v0.4
				c0,0.1,0,0.2,0,0.3c0,0.1,0,0.2-0.1,0.3c0,0.1-0.1,0.2-0.1,0.3s-0.1,0.2-0.2,0.3l-4.5,7h4.8c0.1,0,0.1,0,0.2,0
				c0.1,0,0.1,0.1,0.1,0.1c0,0.1,0.1,0.1,0.1,0.2C114.6,31.9,114.6,32,114.6,32.1 M122,31.9c0,0.2,0,0.4,0,0.5
				c0,0.1-0.1,0.2-0.1,0.3c-0.1,0.1-0.2,0.1-0.3,0.2c-0.1,0-0.3,0.1-0.4,0.1c-0.2,0-0.3,0.1-0.5,0.1c-0.2,0-0.3,0-0.5,0
				c-0.5,0-1-0.1-1.4-0.2c-0.4-0.1-0.7-0.3-0.9-0.6c-0.2-0.3-0.4-0.6-0.5-1.1c-0.1-0.4-0.2-0.9-0.2-1.5v-6h-1.4
				c-0.1,0-0.2-0.1-0.3-0.2s-0.1-0.3-0.1-0.6c0-0.1,0-0.3,0-0.4s0-0.2,0.1-0.2s0.1-0.1,0.1-0.1c0.1,0,0.1,0,0.2,0h1.4v-2.4
				c0,0,0-0.1,0-0.1s0.1-0.1,0.2-0.1c0.1,0,0.2-0.1,0.3-0.1c0.1,0,0.3,0,0.4,0c0.2,0,0.3,0,0.5,0c0.1,0,0.2,0,0.3,0.1
				c0.1,0,0.1,0.1,0.2,0.1c0,0,0.1,0.1,0.1,0.1v2.4h2.6c0.1,0,0.1,0,0.2,0c0,0,0.1,0.1,0.1,0.1c0,0.1,0.1,0.1,0.1,0.2
				c0,0.1,0,0.2,0,0.4c0,0.3,0,0.5-0.1,0.6s-0.2,0.2-0.3,0.2H119v5.7c0,0.7,0.1,1.2,0.3,1.6s0.6,0.5,1.1,0.5c0.2,0,0.3,0,0.5,0
				c0.1,0,0.3-0.1,0.4-0.1s0.2-0.1,0.3-0.1c0.1,0,0.1,0,0.2,0c0,0,0.1,0,0.1,0c0,0,0.1,0,0.1,0.1c0,0,0,0.1,0.1,0.2
				C122,31.6,122,31.8,122,31.9 M131.5,32.7c0,0.1,0,0.2-0.1,0.2c-0.1,0-0.1,0.1-0.2,0.1c-0.1,0-0.3,0-0.5,0c-0.2,0-0.4,0-0.5,0
				c-0.1,0-0.2-0.1-0.2-0.1c-0.1,0-0.1-0.1-0.1-0.2v-1c-0.4,0.5-0.9,0.8-1.5,1.1c-0.5,0.3-1.1,0.4-1.7,0.4c-0.5,0-1-0.1-1.4-0.2
				s-0.8-0.3-1.1-0.6c-0.3-0.3-0.5-0.6-0.7-1c-0.2-0.4-0.2-0.8-0.2-1.3c0-0.6,0.1-1.1,0.3-1.5c0.2-0.4,0.6-0.8,1-1
				c0.4-0.3,1-0.5,1.6-0.6c0.6-0.1,1.3-0.2,2.1-0.2h1.4v-0.8c0-0.4,0-0.7-0.1-1c-0.1-0.3-0.2-0.5-0.4-0.8c-0.2-0.2-0.4-0.4-0.7-0.5
				c-0.3-0.1-0.7-0.1-1.1-0.1c-0.5,0-0.9,0-1.2,0.2c-0.4,0.1-0.7,0.2-1,0.4c-0.3,0.1-0.5,0.2-0.7,0.4s-0.3,0.2-0.4,0.2
				c-0.1,0-0.1,0-0.2,0c-0.1,0-0.1-0.1-0.1-0.1c0-0.1-0.1-0.1-0.1-0.2c0-0.1,0-0.2,0-0.3c0-0.2,0-0.3,0-0.5c0-0.1,0.1-0.2,0.2-0.3
				c0.1-0.1,0.3-0.2,0.5-0.3c0.2-0.1,0.5-0.2,0.9-0.4c0.3-0.1,0.7-0.2,1.1-0.3c0.4-0.1,0.8-0.1,1.2-0.1c0.7,0,1.4,0.1,1.9,0.2
				c0.5,0.2,0.9,0.4,1.2,0.7s0.6,0.7,0.7,1.2c0.1,0.5,0.2,1,0.2,1.7L131.5,32.7L131.5,32.7z M129.6,28.1H128c-0.5,0-1,0-1.3,0.1
				c-0.4,0.1-0.7,0.2-0.9,0.4s-0.4,0.4-0.6,0.6S125,29.7,125,30c0,0.5,0.2,1,0.5,1.3c0.3,0.3,0.8,0.5,1.4,0.5c0.5,0,0.9-0.1,1.4-0.4
				s0.9-0.6,1.3-1.1L129.6,28.1L129.6,28.1z M147.9,22.6c0,0.7-0.1,1.4-0.4,2s-0.6,1.1-1,1.5c-0.4,0.4-1,0.7-1.6,1
				c-0.6,0.2-1.4,0.3-2.3,0.3h-1.7v5.3c0,0.1,0,0.1-0.1,0.2s-0.1,0.1-0.2,0.1s-0.2,0-0.3,0.1c-0.1,0-0.3,0-0.5,0s-0.3,0-0.5,0
				c-0.1,0-0.2,0-0.3-0.1s-0.1-0.1-0.2-0.1s-0.1-0.1-0.1-0.2V19.1c0-0.3,0.1-0.5,0.2-0.6c0.2-0.1,0.3-0.2,0.5-0.2h3.1
				c0.3,0,0.6,0,0.9,0c0.3,0,0.6,0.1,1,0.2c0.4,0.1,0.8,0.2,1.2,0.5s0.8,0.5,1.1,0.9c0.3,0.4,0.5,0.8,0.7,1.2
				C147.9,21.5,147.9,22,147.9,22.6 M145.9,22.7c0-0.6-0.1-1.1-0.3-1.5c-0.2-0.4-0.5-0.7-0.8-0.9c-0.3-0.2-0.7-0.3-1-0.4
				c-0.4,0-0.7-0.1-1-0.1h-1.8v5.9h1.8c0.6,0,1.1-0.1,1.5-0.2c0.4-0.1,0.7-0.4,1-0.6c0.3-0.3,0.5-0.6,0.6-1
				C145.8,23.6,145.9,23.2,145.9,22.7 M158.9,27.4c0,0.8-0.1,1.6-0.3,2.3c-0.2,0.7-0.5,1.3-1,1.8c-0.4,0.5-1,0.9-1.6,1.2
				c-0.6,0.3-1.4,0.4-2.3,0.4c-0.8,0-1.6-0.1-2.2-0.4c-0.6-0.2-1.1-0.6-1.6-1.1c-0.4-0.5-0.7-1-0.9-1.7c-0.2-0.7-0.3-1.5-0.3-2.3
				c0-0.8,0.1-1.6,0.3-2.3c0.2-0.7,0.5-1.3,1-1.8c0.4-0.5,1-0.9,1.6-1.2c0.6-0.3,1.4-0.4,2.3-0.4c0.8,0,1.6,0.1,2.2,0.4
				s1.1,0.6,1.6,1.1s0.7,1,0.9,1.7C158.8,25.8,158.9,26.6,158.9,27.4 M156.9,27.6c0-0.5-0.1-1.1-0.1-1.6c-0.1-0.5-0.3-0.9-0.5-1.3
				c-0.2-0.4-0.6-0.7-0.9-0.9s-0.9-0.3-1.5-0.3c-0.6,0-1,0.1-1.4,0.3c-0.4,0.2-0.7,0.5-1,0.8s-0.4,0.8-0.6,1.3
				c-0.1,0.5-0.2,1-0.2,1.6c0,0.6,0.1,1.1,0.1,1.6c0.1,0.5,0.3,0.9,0.5,1.3c0.2,0.4,0.6,0.7,0.9,0.9c0.4,0.2,0.9,0.3,1.5,0.3
				c0.5,0,1-0.1,1.4-0.3c0.4-0.2,0.7-0.5,1-0.8c0.3-0.4,0.4-0.8,0.6-1.3S156.9,28.1,156.9,27.6 M162.6,32.6c0,0.1,0,0.1-0.1,0.2
				s-0.1,0.1-0.1,0.1c-0.1,0-0.2,0-0.3,0.1s-0.3,0-0.5,0c-0.2,0-0.3,0-0.4,0c-0.1,0-0.2,0-0.3-0.1c-0.1,0-0.1-0.1-0.1-0.1
				s0-0.1,0-0.2V17.5c0-0.1,0-0.1,0-0.2c0,0,0.1-0.1,0.1-0.1c0.1,0,0.2,0,0.3-0.1s0.3,0,0.4,0c0.2,0,0.3,0,0.5,0
				c0.1,0,0.2,0,0.3,0.1c0.1,0,0.1,0.1,0.1,0.1c0,0,0.1,0.1,0.1,0.2V32.6z M171.6,29.9c0,0.5-0.1,1-0.3,1.4c-0.2,0.4-0.5,0.8-0.8,1
				s-0.8,0.5-1.3,0.6s-1,0.2-1.6,0.2c-0.4,0-0.7,0-1-0.1c-0.3-0.1-0.6-0.1-0.9-0.2c-0.3-0.1-0.5-0.2-0.7-0.3
				c-0.2-0.1-0.3-0.2-0.4-0.2c-0.1-0.1-0.1-0.2-0.2-0.3s-0.1-0.3-0.1-0.6c0-0.1,0-0.3,0-0.4c0-0.1,0-0.2,0.1-0.2
				c0-0.1,0.1-0.1,0.1-0.1c0,0,0.1,0,0.1,0c0.1,0,0.2,0,0.4,0.1c0.2,0.1,0.4,0.2,0.6,0.3s0.5,0.2,0.8,0.3c0.3,0.1,0.7,0.1,1.1,0.1
				c0.3,0,0.6,0,0.9-0.1c0.2-0.1,0.5-0.2,0.7-0.3s0.3-0.3,0.4-0.5c0.1-0.2,0.1-0.5,0.1-0.7c0-0.3-0.1-0.5-0.2-0.7
				c-0.1-0.2-0.3-0.4-0.6-0.5s-0.5-0.3-0.8-0.4c-0.3-0.1-0.6-0.2-0.9-0.4c-0.3-0.1-0.6-0.3-0.9-0.4c-0.3-0.2-0.6-0.4-0.8-0.6
				c-0.2-0.2-0.4-0.5-0.6-0.8c-0.1-0.3-0.2-0.7-0.2-1.2c0-0.4,0.1-0.8,0.2-1.1c0.1-0.4,0.4-0.7,0.7-1c0.3-0.3,0.7-0.5,1.2-0.7
				c0.5-0.2,1-0.2,1.6-0.2c0.3,0,0.5,0,0.8,0.1c0.3,0,0.5,0.1,0.7,0.2s0.4,0.1,0.6,0.2s0.3,0.1,0.4,0.2s0.1,0.1,0.2,0.2
				s0.1,0.1,0.1,0.1s0,0.1,0,0.2c0,0.1,0,0.2,0,0.3c0,0.1,0,0.2,0,0.3c0,0.1,0,0.2-0.1,0.2c0,0.1-0.1,0.1-0.1,0.1c0,0-0.1,0-0.1,0
				c-0.1,0-0.2,0-0.3-0.1s-0.3-0.2-0.5-0.3c-0.2-0.1-0.4-0.2-0.7-0.3c-0.3-0.1-0.6-0.1-0.9-0.1c-0.3,0-0.6,0-0.8,0.1
				c-0.2,0.1-0.4,0.2-0.6,0.3s-0.3,0.3-0.4,0.5c-0.1,0.2-0.1,0.4-0.1,0.6c0,0.3,0.1,0.5,0.2,0.7c0.1,0.2,0.4,0.4,0.6,0.5
				c0.2,0.1,0.5,0.3,0.8,0.4c0.3,0.1,0.6,0.2,0.9,0.4c0.3,0.1,0.6,0.3,0.9,0.4s0.6,0.4,0.8,0.6s0.4,0.5,0.6,0.8
				C171.6,29.1,171.6,29.4,171.6,29.9 M181.9,32.6c0,0.1,0,0.1,0,0.2c0,0-0.1,0.1-0.1,0.1c-0.1,0-0.2,0-0.3,0.1s-0.3,0-0.5,0
				c-0.2,0-0.4,0-0.5,0c-0.1,0-0.2,0-0.3,0c-0.1,0-0.2-0.1-0.2-0.1s-0.1-0.1-0.1-0.2l-4.3-5.6v5.6c0,0.1,0,0.1-0.1,0.2
				s-0.1,0.1-0.1,0.1c-0.1,0-0.2,0-0.3,0.1s-0.3,0-0.5,0c-0.2,0-0.3,0-0.4,0c-0.1,0-0.2,0-0.3-0.1c-0.1,0-0.1-0.1-0.1-0.1
				s0-0.1,0-0.2V17.5c0-0.1,0-0.1,0-0.2c0,0,0.1-0.1,0.1-0.1c0.1,0,0.2,0,0.3-0.1s0.3,0,0.4,0c0.2,0,0.3,0,0.5,0
				c0.1,0,0.2,0,0.3,0.1c0.1,0,0.1,0.1,0.1,0.1c0,0,0.1,0.1,0.1,0.2v9.2l3.8-4.2c0.1-0.1,0.1-0.1,0.2-0.2c0.1,0,0.1-0.1,0.2-0.1
				c0.1,0,0.2,0,0.3-0.1c0.1,0,0.3,0,0.5,0c0.2,0,0.4,0,0.5,0c0.1,0,0.2,0,0.3,0c0.1,0,0.1,0.1,0.2,0.1c0,0,0.1,0.1,0.1,0.2
				c0,0.1,0,0.2-0.1,0.3c-0.1,0.1-0.1,0.2-0.2,0.3l-3.7,3.7l4.1,5.4c0.1,0.1,0.2,0.2,0.2,0.3C181.9,32.5,181.9,32.6,181.9,32.6
				 M191.4,32.7c0,0.1,0,0.2-0.1,0.2c-0.1,0-0.1,0.1-0.2,0.1c-0.1,0-0.3,0-0.5,0c-0.2,0-0.4,0-0.5,0c-0.1,0-0.2-0.1-0.2-0.1
				c-0.1,0-0.1-0.1-0.1-0.2v-1c-0.4,0.5-0.9,0.8-1.5,1.1c-0.5,0.3-1.1,0.4-1.7,0.4c-0.5,0-1-0.1-1.5-0.2c-0.4-0.1-0.8-0.3-1.1-0.6
				c-0.3-0.3-0.5-0.6-0.7-1c-0.2-0.4-0.2-0.8-0.2-1.3c0-0.6,0.1-1.1,0.4-1.5c0.2-0.4,0.6-0.8,1-1c0.4-0.3,1-0.5,1.6-0.6
				c0.6-0.1,1.4-0.2,2.1-0.2h1.4v-0.8c0-0.4,0-0.7-0.1-1c-0.1-0.3-0.2-0.5-0.4-0.8c-0.2-0.2-0.4-0.4-0.7-0.5
				c-0.3-0.1-0.7-0.1-1.1-0.1c-0.5,0-0.9,0-1.2,0.2c-0.4,0.1-0.7,0.2-1,0.4c-0.3,0.1-0.5,0.2-0.7,0.4c-0.2,0.1-0.3,0.2-0.4,0.2
				c-0.1,0-0.1,0-0.2,0c-0.1,0-0.1-0.1-0.1-0.1c0-0.1-0.1-0.1-0.1-0.2c0-0.1,0-0.2,0-0.3c0-0.2,0-0.3,0-0.5c0-0.1,0.1-0.2,0.2-0.3
				s0.3-0.2,0.5-0.3c0.2-0.1,0.5-0.2,0.9-0.4c0.3-0.1,0.7-0.2,1.1-0.3c0.4-0.1,0.8-0.1,1.2-0.1c0.7,0,1.4,0.1,1.9,0.2
				c0.5,0.2,0.9,0.4,1.2,0.7c0.3,0.3,0.6,0.7,0.7,1.2c0.1,0.5,0.2,1,0.2,1.7L191.4,32.7L191.4,32.7z M189.5,28h-1.6
				c-0.5,0-1,0-1.3,0.1c-0.4,0.1-0.7,0.2-0.9,0.4s-0.4,0.4-0.6,0.6c-0.1,0.2-0.2,0.5-0.2,0.8c0,0.5,0.2,1,0.5,1.3
				c0.3,0.3,0.8,0.5,1.4,0.5c0.5,0,0.9-0.1,1.4-0.4s0.9-0.6,1.3-1.1L189.5,28L189.5,28z M32.4,20.1c1.9-1.2,4-1.4,4.6-0.4
				c0.6,1-0.5,2.8-2.4,4c-1.9,1.2-4,1.4-4.6,0.4C29.4,23.1,30.5,21.3,32.4,20.1"/>
		</g>
		<g>
			<defs>
				<rect id="SVGID_7_" x="5" y="5" width="200.9" height="42.5"/>
			</defs>
			<clipPath id="SVGID_8_">
				<use xlink:href="#SVGID_7_"  style="overflow:visible;"/>
			</clipPath>
			<path class="st2" d="M52.8,21c-2.4,1.6-3.4,4.4-2.2,6.3c1.2,1.9,4.2,2.1,6.7,0.5c2.4-1.6,3.4-4.4,2.2-6.3
				C58.2,19.7,55.2,19.4,52.8,21"/>
		</g>
		<g>
			<defs>
				<rect id="SVGID_9_" x="5" y="5" width="200.9" height="42.5"/>
			</defs>
			<clipPath id="SVGID_10_">
				<use xlink:href="#SVGID_9_"  style="overflow:visible;"/>
			</clipPath>
			<path class="st3" d="M53,33.5c6.1-0.9,10.9-5.2,14.1-10.2c0.9-1.4,2.3-0.4,1.6,1c-5.9,11.3-16.6,19-29.4,11.8
				c-3.8-2.1-9.1-5.5-15.4-4.8c-6.8,1-4.3-3,1.1-7.6c0,0,0.1,0,0.1,0.1c-0.5,1.3-0.6,2.4,0,3.3c1.4,2.3,6.4,1.8,11-1
				c0.5-0.3,0.9-0.6,1.3-0.9c1.1-0.8,2-1.6,2.7-2.5c1.9-2.2,2.7-4.5,1.7-6c-0.7-1.1-2.2-1.6-4.1-1.4c-0.4,0,0.1-0.3,0.4-0.5
				c7.1-3.9,12.5-5,7.6,2.5C40.9,24.6,42.8,35,53,33.5"/>
		</g>
	</g>
</g>
</svg>
