<?xml version="1.0" encoding="utf-8"?>
<!-- Generator: Adobe Illustrator 25.0.1, SVG Export Plug-In . SVG Version: 6.00 Build 0)  -->
<svg version="1.1" id="Layer_1" xmlns="http://www.w3.org/2000/svg" xmlns:xlink="http://www.w3.org/1999/xlink" x="0px" y="0px"
	 viewBox="0 0 211.14 52.52" style="enable-background:new 0 0 211.14 52.52;" xml:space="preserve">
<style type="text/css">
	.st0{clip-path:url(#SVGID_2_);fill:#EE2E24;}
	.st1{clip-path:url(#SVGID_2_);}
	.st2{clip-path:url(#SVGID_4_);fill-rule:evenodd;clip-rule:evenodd;fill:#FFFFFF;}
	.st3{clip-path:url(#SVGID_4_);fill-rule:evenodd;clip-rule:evenodd;fill:#FFE600;}
</style>
<g>
	<g>
		<defs>
			<rect id="SVGID_1_" x="5" y="5" width="200.91" height="42.52"/>
		</defs>
		<clipPath id="SVGID_2_">
			<use xlink:href="#SVGID_1_"  style="overflow:visible;"/>
		</clipPath>
		<rect x="5" y="5" class="st0" width="200.91" height="42.52"/>
		<g class="st1">
			<defs>
				<rect id="SVGID_3_" x="5" y="5" width="200.91" height="42.52"/>
			</defs>
			<clipPath id="SVGID_4_">
				<use xlink:href="#SVGID_3_"  style="overflow:visible;"/>
			</clipPath>
			<path class="st2" d="M85.43,22.58c0,0.73-0.12,1.39-0.36,1.98c-0.24,0.59-0.59,1.09-1.03,1.51c-0.45,0.41-1,0.73-1.65,0.96
				c-0.65,0.22-1.43,0.34-2.34,0.34h-1.66v5.27c0,0.06-0.02,0.11-0.05,0.16c-0.03,0.05-0.09,0.08-0.16,0.11
				c-0.07,0.03-0.17,0.05-0.3,0.07C77.76,32.98,77.6,33,77.41,33c-0.19,0-0.34-0.01-0.47-0.03c-0.12-0.02-0.22-0.04-0.3-0.07
				c-0.08-0.03-0.13-0.06-0.16-0.11c-0.03-0.05-0.05-0.1-0.05-0.16v-13.5c0-0.3,0.08-0.52,0.24-0.64c0.16-0.13,0.34-0.19,0.53-0.19
				h3.13c0.32,0,0.62,0.01,0.91,0.04c0.29,0.03,0.64,0.09,1.03,0.17c0.4,0.09,0.8,0.25,1.21,0.49c0.41,0.24,0.76,0.53,1.05,0.88
				c0.29,0.35,0.51,0.75,0.66,1.2C85.35,21.52,85.43,22.03,85.43,22.58 M83.39,22.74c0-0.59-0.11-1.09-0.34-1.49
				c-0.22-0.4-0.5-0.7-0.83-0.9c-0.33-0.2-0.66-0.32-1.02-0.37c-0.35-0.05-0.69-0.08-1.02-0.08h-1.8v5.87h1.75
				c0.59,0,1.08-0.07,1.46-0.22c0.39-0.15,0.71-0.36,0.98-0.63c0.26-0.27,0.46-0.59,0.6-0.96C83.32,23.58,83.39,23.18,83.39,22.74
				 M96.35,27.44c0,0.83-0.11,1.59-0.33,2.29c-0.22,0.7-0.54,1.3-0.98,1.81c-0.43,0.51-0.98,0.9-1.63,1.18
				c-0.65,0.28-1.41,0.42-2.27,0.42c-0.84,0-1.57-0.13-2.19-0.37c-0.62-0.25-1.14-0.61-1.56-1.08c-0.41-0.47-0.72-1.05-0.93-1.73
				c-0.2-0.68-0.3-1.45-0.3-2.3c0-0.83,0.11-1.59,0.32-2.29c0.22-0.7,0.54-1.3,0.97-1.81c0.43-0.51,0.98-0.9,1.62-1.17
				c0.65-0.28,1.41-0.42,2.27-0.42c0.84,0,1.57,0.12,2.19,0.37c0.62,0.25,1.14,0.61,1.56,1.08c0.42,0.47,0.73,1.05,0.93,1.73
				C96.25,25.82,96.35,26.59,96.35,27.44 M94.39,27.56c0-0.55-0.05-1.07-0.15-1.56c-0.1-0.49-0.27-0.92-0.5-1.29
				c-0.24-0.37-0.55-0.66-0.95-0.88c-0.4-0.22-0.9-0.32-1.49-0.32c-0.55,0-1.02,0.1-1.42,0.3c-0.39,0.19-0.72,0.47-0.98,0.83
				c-0.26,0.36-0.45,0.78-0.57,1.27c-0.12,0.49-0.19,1.02-0.19,1.61c0,0.56,0.05,1.08,0.15,1.57c0.1,0.49,0.27,0.92,0.51,1.28
				c0.24,0.37,0.56,0.66,0.95,0.87c0.4,0.22,0.9,0.32,1.49,0.32c0.54,0,1.02-0.1,1.41-0.29c0.4-0.2,0.73-0.47,0.98-0.83
				c0.26-0.35,0.45-0.78,0.57-1.27S94.39,28.15,94.39,27.56 M105.88,31.09c0,0.13,0,0.24-0.01,0.34c-0.01,0.09-0.02,0.17-0.04,0.24
				c-0.02,0.07-0.04,0.12-0.07,0.17c-0.03,0.05-0.09,0.12-0.18,0.22c-0.09,0.09-0.25,0.21-0.48,0.35c-0.23,0.14-0.48,0.26-0.76,0.37
				c-0.28,0.11-0.59,0.2-0.92,0.27c-0.33,0.07-0.68,0.1-1.03,0.1c-0.73,0-1.38-0.12-1.94-0.36c-0.57-0.24-1.04-0.59-1.42-1.06
				c-0.38-0.46-0.67-1.03-0.87-1.71c-0.2-0.68-0.3-1.46-0.3-2.34c0-1,0.12-1.86,0.37-2.59c0.24-0.72,0.58-1.31,1.01-1.77
				c0.42-0.46,0.93-0.8,1.5-1.02c0.58-0.22,1.2-0.34,1.87-0.34c0.32,0,0.64,0.03,0.95,0.09c0.3,0.06,0.59,0.14,0.84,0.24
				c0.25,0.1,0.49,0.21,0.68,0.34c0.2,0.13,0.35,0.24,0.44,0.33c0.09,0.09,0.15,0.16,0.19,0.22c0.03,0.05,0.07,0.11,0.08,0.19
				c0.02,0.07,0.04,0.15,0.05,0.24c0.01,0.09,0.01,0.2,0.01,0.34c0,0.29-0.03,0.5-0.1,0.61c-0.07,0.12-0.15,0.18-0.25,0.18
				c-0.11,0-0.24-0.06-0.39-0.19c-0.15-0.13-0.33-0.26-0.56-0.41c-0.22-0.15-0.5-0.29-0.82-0.41c-0.32-0.13-0.7-0.19-1.14-0.19
				c-0.9,0-1.58,0.35-2.06,1.03c-0.48,0.69-0.72,1.69-0.72,3c0,0.66,0.06,1.23,0.19,1.73c0.12,0.49,0.31,0.91,0.55,1.24
				c0.24,0.33,0.54,0.58,0.89,0.74c0.35,0.16,0.75,0.24,1.2,0.24c0.43,0,0.81-0.07,1.13-0.2c0.32-0.14,0.61-0.29,0.84-0.45
				c0.24-0.16,0.44-0.31,0.6-0.44c0.16-0.13,0.29-0.2,0.38-0.2c0.05,0,0.1,0.02,0.14,0.04c0.04,0.03,0.07,0.08,0.1,0.15
				c0.03,0.07,0.04,0.16,0.05,0.27C105.87,30.81,105.88,30.94,105.88,31.09 M114.6,32.13c0,0.14-0.01,0.27-0.03,0.37
				c-0.02,0.1-0.05,0.19-0.08,0.25c-0.03,0.06-0.07,0.11-0.13,0.14c-0.05,0.03-0.11,0.04-0.17,0.04h-6.26
				c-0.16,0-0.29-0.05-0.39-0.16c-0.1-0.1-0.15-0.28-0.15-0.53v-0.38c0-0.11,0.01-0.2,0.02-0.29c0.02-0.08,0.04-0.17,0.07-0.25
				c0.03-0.09,0.07-0.17,0.12-0.27c0.05-0.09,0.12-0.2,0.19-0.32l4.49-6.99h-4.35c-0.12,0-0.22-0.06-0.29-0.19
				c-0.07-0.12-0.11-0.33-0.11-0.61c0-0.14,0.01-0.25,0.02-0.36c0.02-0.1,0.04-0.19,0.07-0.25c0.03-0.06,0.07-0.11,0.12-0.14
				c0.05-0.03,0.11-0.04,0.17-0.04h5.84c0.09,0,0.16,0.01,0.22,0.03c0.07,0.02,0.12,0.06,0.17,0.11c0.04,0.05,0.08,0.12,0.11,0.2
				c0.02,0.08,0.04,0.19,0.04,0.32v0.36c0,0.11-0.01,0.2-0.02,0.3c-0.02,0.09-0.04,0.18-0.07,0.26c-0.03,0.09-0.07,0.18-0.12,0.28
				c-0.05,0.1-0.12,0.21-0.19,0.33l-4.47,6.99h4.77c0.06,0,0.12,0.01,0.17,0.04c0.05,0.03,0.09,0.07,0.12,0.13
				c0.03,0.06,0.06,0.14,0.09,0.24C114.58,31.87,114.6,31.99,114.6,32.13 M122,31.89c0,0.22-0.02,0.39-0.04,0.52
				c-0.03,0.13-0.08,0.22-0.14,0.28c-0.06,0.06-0.15,0.12-0.27,0.17c-0.12,0.05-0.26,0.1-0.41,0.13c-0.15,0.03-0.32,0.06-0.49,0.09
				c-0.17,0.02-0.35,0.03-0.52,0.03c-0.53,0-0.98-0.07-1.36-0.21c-0.37-0.14-0.68-0.35-0.93-0.63c-0.24-0.29-0.42-0.64-0.52-1.08
				c-0.11-0.43-0.16-0.94-0.16-1.53v-5.95h-1.43c-0.11,0-0.2-0.06-0.27-0.18c-0.07-0.12-0.1-0.32-0.1-0.59
				c0-0.14,0.01-0.26,0.03-0.36c0.02-0.1,0.04-0.18,0.07-0.24c0.03-0.06,0.07-0.11,0.12-0.14c0.05-0.03,0.1-0.04,0.16-0.04h1.42
				v-2.42c0-0.05,0.01-0.1,0.04-0.15c0.03-0.05,0.07-0.08,0.15-0.12c0.07-0.03,0.17-0.06,0.29-0.07c0.12-0.02,0.27-0.02,0.45-0.02
				c0.19,0,0.34,0.01,0.46,0.02c0.12,0.02,0.22,0.04,0.28,0.07c0.07,0.03,0.12,0.07,0.15,0.12c0.03,0.05,0.05,0.09,0.05,0.15v2.42
				h2.61c0.06,0,0.11,0.01,0.16,0.04c0.04,0.03,0.09,0.07,0.12,0.14c0.04,0.07,0.06,0.15,0.07,0.24c0.02,0.1,0.02,0.22,0.02,0.36
				c0,0.27-0.03,0.47-0.1,0.59c-0.07,0.12-0.16,0.18-0.27,0.18h-2.61v5.68c0,0.7,0.1,1.23,0.31,1.59c0.21,0.36,0.58,0.54,1.12,0.54
				c0.17,0,0.33-0.02,0.46-0.05c0.13-0.03,0.26-0.07,0.36-0.11c0.1-0.04,0.2-0.07,0.27-0.11c0.08-0.03,0.14-0.05,0.2-0.05
				c0.04,0,0.07,0.01,0.11,0.03c0.03,0.02,0.06,0.05,0.08,0.11c0.02,0.05,0.04,0.12,0.05,0.21C121.99,31.65,122,31.76,122,31.89
				 M131.48,32.71c0,0.09-0.03,0.16-0.09,0.2c-0.06,0.05-0.14,0.08-0.25,0.1c-0.11,0.02-0.26,0.03-0.46,0.03
				c-0.2,0-0.36-0.01-0.47-0.03c-0.12-0.02-0.2-0.06-0.25-0.1c-0.05-0.04-0.08-0.11-0.08-0.2v-1.02c-0.45,0.47-0.94,0.85-1.49,1.11
				c-0.54,0.26-1.12,0.4-1.73,0.4c-0.54,0-1.02-0.07-1.45-0.21c-0.43-0.14-0.8-0.34-1.11-0.6c-0.3-0.27-0.54-0.59-0.71-0.97
				c-0.17-0.39-0.25-0.82-0.25-1.31c0-0.58,0.12-1.07,0.35-1.49c0.24-0.42,0.57-0.77,1.01-1.05c0.44-0.28,0.97-0.49,1.61-0.63
				c0.63-0.14,1.35-0.21,2.14-0.21h1.4v-0.79c0-0.39-0.04-0.74-0.12-1.04c-0.08-0.3-0.22-0.55-0.4-0.75
				c-0.19-0.2-0.42-0.35-0.72-0.46c-0.29-0.1-0.66-0.15-1.08-0.15c-0.46,0-0.87,0.05-1.24,0.16c-0.37,0.11-0.69,0.23-0.96,0.36
				c-0.28,0.13-0.51,0.25-0.69,0.36c-0.18,0.11-0.32,0.16-0.41,0.16c-0.06,0-0.11-0.02-0.16-0.04c-0.05-0.03-0.09-0.08-0.12-0.14
				c-0.03-0.06-0.06-0.14-0.07-0.23c-0.02-0.09-0.02-0.2-0.02-0.31c0-0.19,0.02-0.34,0.04-0.45c0.03-0.11,0.09-0.21,0.19-0.31
				c0.1-0.1,0.27-0.21,0.52-0.34c0.25-0.13,0.53-0.25,0.86-0.36c0.32-0.11,0.68-0.2,1.07-0.27c0.38-0.07,0.77-0.11,1.17-0.11
				c0.73,0,1.35,0.09,1.86,0.25c0.51,0.17,0.93,0.41,1.24,0.73s0.55,0.72,0.69,1.19c0.14,0.47,0.22,1.03,0.22,1.66V32.71z
				 M129.62,28.07h-1.59c-0.51,0-0.96,0.04-1.34,0.13c-0.37,0.09-0.69,0.22-0.94,0.39c-0.25,0.17-0.43,0.37-0.55,0.61
				c-0.12,0.24-0.17,0.51-0.17,0.82c0,0.53,0.17,0.95,0.5,1.26c0.34,0.31,0.81,0.47,1.41,0.47c0.49,0,0.94-0.12,1.36-0.37
				c0.42-0.25,0.86-0.63,1.32-1.14V28.07z M147.93,22.58c0,0.73-0.12,1.39-0.36,1.98c-0.24,0.59-0.59,1.09-1.03,1.51
				c-0.45,0.41-1,0.73-1.65,0.96c-0.65,0.22-1.43,0.34-2.34,0.34h-1.66v5.27c0,0.06-0.02,0.11-0.05,0.16
				c-0.03,0.05-0.09,0.08-0.16,0.11c-0.07,0.03-0.17,0.05-0.3,0.07c-0.12,0.02-0.28,0.03-0.47,0.03c-0.19,0-0.34-0.01-0.47-0.03
				c-0.12-0.02-0.22-0.04-0.3-0.07c-0.08-0.03-0.13-0.06-0.16-0.11c-0.03-0.05-0.05-0.1-0.05-0.16v-13.5c0-0.3,0.08-0.52,0.24-0.64
				c0.16-0.13,0.34-0.19,0.53-0.19h3.13c0.32,0,0.62,0.01,0.91,0.04c0.29,0.03,0.64,0.09,1.03,0.17c0.4,0.09,0.8,0.25,1.21,0.49
				c0.41,0.24,0.76,0.53,1.05,0.88c0.29,0.35,0.51,0.75,0.66,1.2C147.85,21.52,147.93,22.03,147.93,22.58 M145.89,22.74
				c0-0.59-0.11-1.09-0.34-1.49c-0.22-0.4-0.5-0.7-0.83-0.9c-0.33-0.2-0.66-0.32-1.01-0.37c-0.35-0.05-0.69-0.08-1.02-0.08h-1.8
				v5.87h1.75c0.59,0,1.08-0.07,1.46-0.22c0.39-0.15,0.71-0.36,0.98-0.63c0.26-0.27,0.46-0.59,0.6-0.96
				C145.82,23.58,145.89,23.18,145.89,22.74 M158.85,27.44c0,0.83-0.11,1.59-0.33,2.29c-0.22,0.7-0.54,1.3-0.98,1.81
				c-0.43,0.51-0.98,0.9-1.63,1.18c-0.65,0.28-1.41,0.42-2.27,0.42c-0.84,0-1.57-0.13-2.19-0.37c-0.62-0.25-1.14-0.61-1.56-1.08
				c-0.41-0.47-0.72-1.05-0.93-1.73c-0.2-0.68-0.3-1.45-0.3-2.3c0-0.83,0.11-1.59,0.32-2.29c0.22-0.7,0.54-1.3,0.97-1.81
				c0.43-0.51,0.98-0.9,1.62-1.17c0.65-0.28,1.4-0.42,2.27-0.42c0.84,0,1.57,0.12,2.19,0.37c0.62,0.25,1.14,0.61,1.56,1.08
				c0.42,0.47,0.73,1.05,0.93,1.73C158.75,25.82,158.85,26.59,158.85,27.44 M156.88,27.56c0-0.55-0.05-1.07-0.15-1.56
				c-0.1-0.49-0.27-0.92-0.5-1.29c-0.24-0.37-0.55-0.66-0.95-0.88c-0.4-0.22-0.9-0.32-1.49-0.32c-0.55,0-1.02,0.1-1.42,0.3
				c-0.39,0.19-0.72,0.47-0.98,0.83c-0.26,0.36-0.45,0.78-0.57,1.27c-0.12,0.49-0.19,1.02-0.19,1.61c0,0.56,0.05,1.08,0.15,1.57
				c0.1,0.49,0.27,0.92,0.51,1.28c0.24,0.37,0.56,0.66,0.95,0.87c0.4,0.22,0.9,0.32,1.49,0.32c0.54,0,1.02-0.1,1.41-0.29
				c0.4-0.2,0.73-0.47,0.98-0.83c0.26-0.35,0.45-0.78,0.57-1.27S156.88,28.15,156.88,27.56 M162.59,32.64
				c0,0.06-0.02,0.11-0.05,0.15c-0.03,0.04-0.08,0.08-0.15,0.11c-0.07,0.03-0.16,0.05-0.28,0.07c-0.12,0.02-0.28,0.02-0.47,0.02
				c-0.18,0-0.33-0.01-0.45-0.02c-0.12-0.02-0.22-0.04-0.29-0.07c-0.07-0.03-0.12-0.07-0.15-0.11c-0.03-0.04-0.04-0.09-0.04-0.15
				V17.54c0-0.06,0.02-0.12,0.04-0.16c0.02-0.05,0.07-0.08,0.15-0.12c0.07-0.03,0.17-0.05,0.29-0.07c0.12-0.02,0.27-0.02,0.45-0.02
				c0.19,0,0.34,0.01,0.47,0.02c0.12,0.02,0.21,0.04,0.28,0.07c0.07,0.03,0.12,0.07,0.15,0.12c0.03,0.04,0.05,0.1,0.05,0.16V32.64z
				 M171.65,29.87c0,0.52-0.1,0.98-0.29,1.39c-0.19,0.41-0.47,0.75-0.82,1.03c-0.35,0.28-0.78,0.49-1.27,0.63
				c-0.49,0.14-1.03,0.22-1.62,0.22c-0.36,0-0.71-0.03-1.03-0.09c-0.33-0.06-0.62-0.13-0.88-0.22c-0.26-0.08-0.48-0.18-0.66-0.27
				c-0.18-0.1-0.31-0.18-0.39-0.25c-0.09-0.08-0.14-0.18-0.18-0.32c-0.04-0.14-0.06-0.32-0.06-0.56c0-0.14,0.01-0.26,0.02-0.36
				c0.02-0.1,0.03-0.17,0.06-0.24c0.02-0.06,0.05-0.1,0.1-0.13c0.04-0.03,0.09-0.04,0.14-0.04c0.09,0,0.21,0.05,0.37,0.15
				c0.16,0.1,0.36,0.21,0.6,0.33c0.24,0.12,0.52,0.23,0.84,0.33c0.32,0.1,0.7,0.15,1.12,0.15c0.32,0,0.6-0.03,0.86-0.1
				c0.25-0.07,0.48-0.17,0.67-0.3c0.19-0.13,0.33-0.3,0.43-0.5c0.1-0.2,0.15-0.45,0.15-0.73c0-0.29-0.07-0.53-0.22-0.72
				c-0.15-0.2-0.34-0.37-0.58-0.52c-0.24-0.15-0.51-0.29-0.81-0.4c-0.3-0.12-0.61-0.24-0.93-0.37c-0.32-0.13-0.63-0.27-0.94-0.44
				c-0.3-0.16-0.58-0.36-0.82-0.59c-0.24-0.24-0.44-0.51-0.58-0.84c-0.15-0.32-0.22-0.71-0.22-1.17c0-0.4,0.08-0.78,0.23-1.15
				c0.15-0.37,0.39-0.69,0.69-0.96c0.31-0.27,0.69-0.49,1.16-0.66c0.46-0.17,1.01-0.25,1.63-0.25c0.27,0,0.54,0.02,0.81,0.07
				c0.27,0.04,0.51,0.1,0.73,0.17c0.22,0.07,0.41,0.14,0.56,0.22c0.15,0.08,0.27,0.15,0.35,0.21c0.08,0.06,0.13,0.11,0.16,0.16
				c0.03,0.05,0.05,0.1,0.06,0.15c0.01,0.05,0.02,0.12,0.03,0.21c0.01,0.08,0.02,0.19,0.02,0.3c0,0.13-0.01,0.24-0.02,0.33
				c-0.01,0.1-0.03,0.17-0.05,0.23c-0.03,0.06-0.06,0.1-0.1,0.13c-0.04,0.03-0.08,0.04-0.12,0.04c-0.07,0-0.17-0.04-0.3-0.12
				c-0.13-0.08-0.29-0.17-0.49-0.27c-0.2-0.09-0.44-0.18-0.72-0.27c-0.27-0.08-0.59-0.12-0.94-0.12c-0.32,0-0.59,0.03-0.84,0.11
				c-0.24,0.07-0.44,0.17-0.59,0.3c-0.15,0.13-0.27,0.29-0.35,0.47c-0.08,0.18-0.12,0.37-0.12,0.59c0,0.29,0.07,0.54,0.22,0.74
				c0.15,0.2,0.35,0.37,0.59,0.52c0.24,0.15,0.51,0.29,0.82,0.41c0.31,0.12,0.63,0.24,0.95,0.37c0.32,0.13,0.64,0.27,0.95,0.43
				c0.31,0.16,0.59,0.35,0.83,0.58c0.24,0.23,0.43,0.5,0.58,0.81C171.57,29.06,171.65,29.44,171.65,29.87 M181.88,32.63
				c0,0.06-0.02,0.11-0.04,0.16c-0.03,0.05-0.08,0.08-0.15,0.11c-0.07,0.03-0.17,0.05-0.3,0.07c-0.13,0.02-0.29,0.02-0.49,0.02
				c-0.2,0-0.37-0.01-0.5-0.02c-0.13-0.01-0.24-0.03-0.33-0.05c-0.09-0.03-0.17-0.07-0.22-0.12c-0.05-0.05-0.1-0.11-0.15-0.17
				l-4.3-5.63v5.64c0,0.06-0.02,0.11-0.05,0.15c-0.03,0.04-0.08,0.08-0.15,0.11c-0.07,0.03-0.16,0.05-0.28,0.07
				c-0.12,0.02-0.28,0.02-0.47,0.02c-0.18,0-0.33-0.01-0.45-0.02c-0.12-0.02-0.22-0.04-0.29-0.07c-0.07-0.03-0.12-0.07-0.15-0.11
				c-0.03-0.04-0.04-0.09-0.04-0.15V17.54c0-0.06,0.02-0.12,0.04-0.16c0.02-0.05,0.07-0.08,0.15-0.12c0.07-0.03,0.17-0.05,0.29-0.07
				c0.12-0.02,0.27-0.02,0.45-0.02c0.19,0,0.34,0.01,0.47,0.02c0.12,0.02,0.21,0.04,0.28,0.07c0.07,0.03,0.12,0.07,0.15,0.12
				c0.03,0.04,0.05,0.1,0.05,0.16v9.2l3.84-4.23c0.06-0.08,0.12-0.14,0.19-0.19c0.07-0.05,0.15-0.09,0.24-0.12
				c0.09-0.03,0.2-0.05,0.33-0.07c0.13-0.01,0.28-0.02,0.46-0.02c0.19,0,0.35,0.01,0.47,0.02c0.13,0.01,0.23,0.03,0.31,0.05
				c0.08,0.03,0.13,0.06,0.17,0.1c0.03,0.04,0.05,0.1,0.05,0.16c0,0.09-0.03,0.18-0.07,0.27c-0.05,0.09-0.13,0.2-0.24,0.32
				l-3.69,3.69l4.14,5.37c0.1,0.13,0.17,0.23,0.21,0.31C181.86,32.49,181.88,32.56,181.88,32.63 M191.36,32.66
				c0,0.09-0.03,0.16-0.09,0.2c-0.06,0.05-0.14,0.08-0.25,0.1c-0.11,0.02-0.26,0.03-0.46,0.03c-0.2,0-0.36-0.01-0.47-0.03
				c-0.12-0.02-0.2-0.06-0.25-0.1c-0.05-0.04-0.08-0.11-0.08-0.2v-1.02c-0.45,0.47-0.94,0.85-1.49,1.11
				c-0.54,0.26-1.12,0.4-1.73,0.4c-0.54,0-1.02-0.07-1.46-0.21c-0.43-0.14-0.8-0.34-1.11-0.6c-0.31-0.27-0.54-0.59-0.71-0.97
				c-0.17-0.39-0.25-0.82-0.25-1.31c0-0.58,0.12-1.07,0.35-1.49c0.24-0.42,0.57-0.77,1.01-1.05c0.44-0.28,0.97-0.49,1.61-0.63
				c0.63-0.14,1.35-0.21,2.14-0.21h1.4v-0.79c0-0.39-0.04-0.74-0.12-1.04c-0.09-0.3-0.22-0.55-0.4-0.75
				c-0.19-0.2-0.42-0.35-0.72-0.46c-0.29-0.1-0.66-0.15-1.08-0.15c-0.46,0-0.87,0.05-1.24,0.16c-0.37,0.11-0.69,0.23-0.96,0.36
				c-0.28,0.13-0.51,0.25-0.69,0.36c-0.19,0.11-0.32,0.16-0.41,0.16c-0.06,0-0.11-0.02-0.16-0.04c-0.05-0.03-0.08-0.08-0.12-0.14
				c-0.03-0.06-0.06-0.14-0.07-0.23c-0.02-0.09-0.02-0.2-0.02-0.31c0-0.19,0.02-0.34,0.04-0.45c0.03-0.11,0.09-0.21,0.19-0.31
				c0.1-0.1,0.27-0.21,0.52-0.34c0.25-0.13,0.53-0.25,0.86-0.36c0.32-0.11,0.68-0.2,1.07-0.27c0.38-0.07,0.77-0.11,1.17-0.11
				c0.73,0,1.35,0.09,1.86,0.25c0.51,0.17,0.93,0.41,1.24,0.73c0.32,0.32,0.55,0.72,0.69,1.19c0.14,0.47,0.22,1.03,0.22,1.66V32.66z
				 M189.5,28.01h-1.59c-0.51,0-0.96,0.04-1.34,0.13c-0.37,0.09-0.69,0.22-0.94,0.39c-0.25,0.17-0.43,0.37-0.55,0.61
				c-0.12,0.24-0.17,0.51-0.17,0.82c0,0.53,0.17,0.95,0.5,1.26c0.34,0.31,0.81,0.47,1.41,0.47c0.49,0,0.94-0.12,1.36-0.37
				c0.42-0.25,0.86-0.63,1.32-1.14V28.01z M32.43,20.1c1.94-1.21,4.02-1.41,4.62-0.43c0.61,0.97-0.48,2.75-2.43,3.96
				c-1.94,1.21-4.02,1.41-4.62,0.43C29.4,23.09,30.49,21.32,32.43,20.1"/>
			<path class="st3" d="M52.75,21.05c-2.44,1.6-3.43,4.43-2.2,6.29c1.22,1.86,4.21,2.08,6.65,0.48c2.44-1.6,3.43-4.43,2.2-6.29
				C58.17,19.67,55.18,19.45,52.75,21.05"/>
			<path class="st3" d="M53.05,33.49c6.12-0.87,10.89-5.25,14.11-10.24c0.88-1.36,2.33-0.35,1.63,0.99
				c-5.87,11.28-16.57,19-29.42,11.81c-3.81-2.13-9.11-5.47-15.42-4.76c-6.79,1.01-4.28-2.98,1.15-7.61
				c0.05-0.04,0.14-0.05,0.07,0.07c-0.52,1.26-0.56,2.43-0.01,3.31c1.43,2.3,6.36,1.84,10.96-1.03c0.47-0.29,0.91-0.59,1.33-0.91
				c1.12-0.81,2.02-1.64,2.69-2.48c1.9-2.21,2.65-4.5,1.73-5.99c-0.7-1.12-2.23-1.59-4.14-1.44c-0.43,0.03,0.1-0.33,0.39-0.48
				c7.09-3.88,12.48-4.98,7.63,2.52C40.9,24.65,42.77,34.96,53.05,33.49"/>
		</g>
	</g>
</g>
</svg>
