<?xml version="1.0" encoding="utf-8"?>
<!-- Generator: Adobe Illustrator 25.2.0, SVG Export Plug-In . SVG Version: 6.00 Build 0)  -->
<svg version="1.1" id="Layer_1" xmlns="http://www.w3.org/2000/svg" xmlns:xlink="http://www.w3.org/1999/xlink" x="0px" y="0px"
	 viewBox="0 0 473 132.51" style="enable-background:new 0 0 473 132.51;" xml:space="preserve">
<style type="text/css">
	.st0{fill:#FFFFFF;}
	.st1{fill:none;stroke:#E41F13;stroke-miterlimit:10;}
	.st2{fill:#E41F13;}
</style>
<g>
	<rect class="st0" width="473" height="132.51"/>
	<g>
		<path class="st0" d="M327.42,74.62l-9.36-16.79l35.96-37.49l97.23,0.3c0,0-36.17,1.87-50.9,10.61c-14.73,8.73-6.29,3.84-10.29,5.4
			s-15.93,12.44-15.93,12.44l-20.59,23.93l-14.81,6.44l-7.63-2.07L327.42,74.62z"/>
		<g>
			<path class="st1" d="M324.26,69.42l-6.52-11.59l35.96-37.49l97.89,0.3c0,0-33.29,1.36-51.56,10.61"/>
			<path class="st2" d="M360.55,33.59l-35.11,38.09l5.04,8.96h16.19c0.47,0,4.96-0.32,11.14-6.5c6.6-7.07,18.79-24.28,22.44-27.93
				c3.65-3.65,13.95-10.27,31.33-12.68C386.13,33.53,360.55,33.59,360.55,33.59"/>
			<g>
				<path class="st2" d="M21.74,80.57l11.94-59.72h26.73c12.19,0,17.16,5.61,14.91,16.83C72.9,49.85,63.1,57.21,45.93,59.77
					l0.38-9.86c10.38-1.81,16.19-5.78,17.42-11.9c0.97-4.96-1.02-7.43-5.97-7.43H42.79l-9.98,49.99H21.74z"/>
				<path class="st2" d="M75.33,58.65c2.98-14.9,11.57-22.34,25.77-22.34s19.81,7.45,16.83,22.34c-2.98,14.87-11.57,22.3-25.77,22.3
					C78.01,80.95,72.4,73.51,75.33,58.65z M93.91,72.22c6.82,0,11.15-4.58,12.99-13.74c1.78-8.94-0.74-13.41-7.56-13.41
					c-6.82,0-11.12,4.47-12.9,13.41C84.6,67.64,87.09,72.22,93.91,72.22z"/>
				<path class="st2" d="M154.51,75.14c-4.34,3.62-9.16,5.43-14.45,5.43c-13.92,0-19.39-7.45-16.41-22.34
					c2.87-14.34,11.82-21.51,26.85-21.51c4.18,0,7.99,0.42,11.44,1.25l-1.75,8.77c-3.45-0.84-6.99-1.25-10.61-1.25
					c-8.21,0-13.17,4.25-14.87,12.74c-1.81,9.05,0.83,13.57,7.93,13.57c4.73,0,9.27-1.81,13.61-5.43L154.51,75.14z"/>
				<path class="st2" d="M168.87,36.72h32.57l-1.75,8.77l-26.52,26.73h20.34l-1.67,8.35h-32.58l1.67-8.35l26.44-26.73h-20.25
					L168.87,36.72z"/>
				<path class="st2" d="M211.43,29.62h8.19l0.25,7.1h10.19l-1.75,8.77h-8.98l-4.05,20.17c-0.81,4.09,0.56,6.14,4.09,6.14h3.68
					l-1.75,8.77h-9.02c-7.35,0-10.23-3.94-8.65-11.82L211.43,29.62z"/>
				<path class="st2" d="M272.78,49.83c-1.75,8.74-8.52,13.11-20.3,13.11H241.5c-1.17,5.9,2.09,8.85,9.77,8.85
					c5.82,0,11.3-1.81,16.46-5.43l-1.75,8.77c-4.59,3.62-10.36,5.43-17.29,5.43c-14.51,0-20.27-7.48-17.29-22.43
					c2.87-14.28,11.3-21.42,25.31-21.42C269.18,36.72,274.53,41.09,272.78,49.83z M243.13,54.85h11.07c4.59,0,7.21-1.57,7.85-4.72
					c0.61-3.15-1.75-4.72-7.1-4.72C248.82,45.41,244.88,48.55,243.13,54.85z"/>
				<path class="st2" d="M290.36,58.65l-12.03-21.93h11.9l7.48,14.12l12.99-14.12h12.74l-20.76,21.93l11.99,21.92h-11.9l-7.48-14.12
					L282.3,80.57h-12.74L290.36,58.65z"/>
			</g>
		</g>
		<g>
			<path class="st2" d="M128.1,93.05l-2.72,13.59h-2.52l2.72-13.59H128.1z M137.28,93.05l-7.54,6.6l5.52,7h-3.3l-4.55-6.35
				l0.32-1.63l6.37-5.61H137.28z"/>
			<path class="st2" d="M147.77,96.66l-2,9.98h-2.23l0.39-3.36c-1.24,2.24-2.78,3.36-4.64,3.36c-1.92,0-2.66-1.08-2.23-3.24
				l1.35-6.74h2.52l-1.35,6.77c-0.16,0.79,0.22,1.18,1.12,1.18c1.2,0,2.4-1.05,3.59-3.17l0.96-4.78H147.77z"/>
			<path class="st2" d="M148.15,106.64l2-9.98h2.23l-0.35,3.17c1.13-2.12,2.34-3.17,3.63-3.17l-0.43,2.13
				c-1.25,0-2.46,1.02-3.6,3.07l-0.96,4.78H148.15z"/>
			<path class="st2" d="M159.6,96.66l-2,9.98h-2.52l2-9.98H159.6z M160.32,93.05l-0.4,2h-2.52l0.4-2H160.32z"/>
			<path class="st2" d="M169.8,99.65c-0.4,1.99-1.94,2.98-4.62,2.98h-2.5c-0.27,1.34,0.48,2.01,2.22,2.01
				c1.32,0,2.57-0.41,3.75-1.24l-0.4,2c-1.05,0.82-2.36,1.24-3.93,1.24c-3.3,0-4.61-1.7-3.94-5.1c0.65-3.25,2.57-4.88,5.76-4.88
				C168.98,96.66,170.2,97.66,169.8,99.65z M163.05,100.79h2.52c1.05,0,1.64-0.36,1.79-1.07c0.14-0.72-0.4-1.07-1.62-1.07
				C164.35,98.64,163.45,99.36,163.05,100.79z"/>
			<path class="st2" d="M170.25,106.64l2-9.98h2.23l-0.35,3.17c1.13-2.12,2.34-3.17,3.63-3.17l-0.43,2.13
				c-1.25,0-2.46,1.02-3.6,3.07l-0.96,4.78H170.25z"/>
			<path class="st2" d="M181.71,106.64l2.72-13.59h6.08c2.78,0,3.91,1.28,3.39,3.83c-0.55,2.77-2.78,4.44-6.69,5.03l0.09-2.24
				c2.36-0.41,3.68-1.31,3.96-2.71c0.22-1.13-0.23-1.69-1.36-1.69h-3.4l-2.27,11.38H181.71z"/>
			<path class="st2" d="M193.9,101.65c0.68-3.39,2.63-5.08,5.86-5.08c3.23,0,4.51,1.7,3.83,5.08c-0.68,3.38-2.63,5.08-5.86,5.08
				C194.51,106.73,193.24,105.04,193.9,101.65z M198.13,104.74c1.55,0,2.54-1.04,2.96-3.13c0.41-2.03-0.17-3.05-1.72-3.05
				c-1.55,0-2.53,1.02-2.94,3.05C196.01,103.7,196.58,104.74,198.13,104.74z"/>
			<path class="st2" d="M211.92,105.41c-0.99,0.82-2.08,1.24-3.29,1.24c-3.17,0-4.41-1.69-3.74-5.08c0.65-3.26,2.69-4.89,6.11-4.89
				c0.95,0,1.82,0.09,2.6,0.29l-0.4,2c-0.79-0.19-1.59-0.29-2.41-0.29c-1.87,0-3,0.97-3.38,2.9c-0.41,2.06,0.19,3.09,1.81,3.09
				c1.08,0,2.11-0.41,3.1-1.24L211.92,105.41z"/>
			<path class="st2" d="M215.19,96.66h7.41l-0.4,2l-6.04,6.08h4.63l-0.38,1.9h-7.41l0.38-1.9l6.02-6.08h-4.61L215.19,96.66z"/>
			<path class="st2" d="M224.88,95.05h1.86l0.06,1.62h2.32l-0.4,2h-2.04l-0.92,4.59c-0.18,0.93,0.13,1.4,0.93,1.4h0.84l-0.4,2h-2.05
				c-1.67,0-2.33-0.9-1.97-2.69L224.88,95.05z"/>
			<path class="st2" d="M236.54,103.28c-1.24,2.24-2.78,3.36-4.64,3.36c-1.92,0-2.66-1.08-2.23-3.24l1.35-6.74h2.52l-1.35,6.77
				c-0.16,0.79,0.22,1.18,1.12,1.18c1.2,0,2.4-1.05,3.59-3.17l0.96-4.78h2.52l-2,9.98c-0.48,2.41-2.51,3.61-6.07,3.61
				c-1.23,0-2.29-0.16-3.17-0.48l0.4-2c0.91,0.32,1.97,0.48,3.19,0.48c1.88,0,2.92-0.54,3.14-1.62L236.54,103.28z"/>
			<path class="st2" d="M245.28,106.64l2.72-13.59h6.08c2.78,0,3.91,1.28,3.39,3.83c-0.55,2.77-2.78,4.44-6.69,5.03l0.09-2.24
				c2.36-0.41,3.68-1.31,3.96-2.71c0.22-1.13-0.23-1.69-1.36-1.69h-3.4l-2.27,11.38H245.28z"/>
			<path class="st2" d="M257.47,101.65c0.68-3.39,2.63-5.08,5.86-5.08s4.51,1.7,3.83,5.08c-0.68,3.38-2.63,5.08-5.86,5.08
				C258.08,106.73,256.81,105.04,257.47,101.65z M261.7,104.74c1.55,0,2.54-1.04,2.96-3.13c0.41-2.03-0.17-3.05-1.72-3.05
				s-2.53,1.02-2.94,3.05C259.58,103.7,260.15,104.74,261.7,104.74z"/>
			<path class="st2" d="M273.3,93.05l-2.72,13.59h-2.52l2.72-13.59H273.3z"/>
			<path class="st2" d="M273.06,106.17l0.42-2.09c1.02,0.44,2.26,0.67,3.71,0.67c1.08,0,1.7-0.35,1.83-1.05
				c0.13-0.63-0.17-0.95-0.9-0.95h-1.81c-2.03,0-2.84-1.01-2.43-3.04c0.42-2.09,2.11-3.14,5.07-3.14c1.25,0,2.4,0.19,3.43,0.57
				l-0.42,2.09c-1.02-0.44-2.18-0.67-3.48-0.67c-1.36,0-2.11,0.35-2.25,1.05c-0.13,0.63,0.21,0.95,1,0.95h1.62
				c2.22,0,3.12,1.01,2.72,3.04c-0.42,2.09-2.04,3.14-4.87,3.14C275.3,106.74,274.09,106.55,273.06,106.17z"/>
			<path class="st2" d="M282.71,106.64l2.72-13.59h2.52l-1.25,6.29c1.39-1.79,2.91-2.68,4.55-2.68c2.04,0,2.88,0.9,2.52,2.69
				c-0.25,1.27-1.38,2.35-3.38,3.24l2.27,4.05h-2.89l-1.93-3.76l0.16-0.79c1.97-0.51,3.07-1.33,3.3-2.46
				c0.13-0.65-0.25-0.97-1.14-0.97c-1.16,0-2.46,0.93-3.89,2.79l-1.04,5.19H282.71z"/>
			<path class="st2" d="M298.73,96.66l-2,9.98h-2.52l2-9.98H298.73z M299.45,93.05l-0.4,2h-2.52l0.4-2H299.45z"/>
			<path class="st2" d="M308.93,99.65c-0.4,1.99-1.94,2.98-4.62,2.98h-2.5c-0.27,1.34,0.47,2.01,2.22,2.01
				c1.32,0,2.57-0.41,3.75-1.24l-0.4,2c-1.04,0.82-2.36,1.24-3.93,1.24c-3.3,0-4.61-1.7-3.94-5.1c0.65-3.25,2.57-4.88,5.76-4.88
				C308.11,96.66,309.33,97.66,308.93,99.65z M302.18,100.79h2.52c1.04,0,1.64-0.36,1.79-1.07c0.14-0.72-0.4-1.07-1.62-1.07
				C303.48,98.64,302.58,99.36,302.18,100.79z"/>
			<path class="st2" d="M313.9,96.66l-1.84,9.22c-0.41,2.01-1.31,3.66-2.72,4.92l-1.7-1.38c0.96-0.86,1.6-2.04,1.9-3.54l1.84-9.22
				H313.9z M314.62,93.05l-0.4,2h-2.52l0.4-2H314.62z"/>
		</g>
	</g>
</g>
</svg>
